<?xml version="1.0" standalone="no"?>
<!DOCTYPE svg PUBLIC "-//W3C//DTD SVG 20010904//EN"
 "http://www.w3.org/TR/2001/REC-SVG-20010904/DTD/svg10.dtd">
<svg version="1.0" xmlns="http://www.w3.org/2000/svg"
 width="268.000000pt" height="268.000000pt" viewBox="0 0 268.000000 268.000000"
 preserveAspectRatio="xMidYMid meet">
<g transform="translate(0.000000,268.000000) scale(0.100000,-0.100000)" fill="#000000" stroke="none">
<path d="M1209 2666 c-2 -2 -26 -6 -54 -10 -74 -9 -202 -41 -280 -71 -582
-219 -939 -808 -859 -1415 7 -52 15 -104 18 -115 81 -367 306 -678 627 -870
385 -229 879 -246 1281 -44 72 36 193 111 208 128 3 4 21 18 40 32 46 35 133
122 179 179 20 25 41 51 48 58 29 31 123 195 157 275 21 48 51 141 68 205 28
107 31 132 32 292 0 96 -2 193 -6 215 -30 167 -56 250 -118 380 -75 154 -142
249 -264 370 -149 148 -276 232 -461 303 -166 65 -296 88 -490 90 -67 1 -124
0 -126 -2z"/>
</g>
</svg>
